<svg width="144" height="210" viewBox="0 0 144 210" fill="none" xmlns="http://www.w3.org/2000/svg">
<rect width="144" height="144" rx="72" fill="#0C73B8"/>
<path d="M52 48L56 90L72 96L88 90L92 48H52ZM58.6641 54H85.3047L84.7812 60L73.3906 66H78.2422H84H84.2461L83.2227 78.0156L83.2617 78L82.7109 84L72 88L61.2695 84L60.6094 76H66.6523L66.9648 80.0664L72 81.8086L77.043 80.1016L77.7344 72H60.2617L59.7461 66L71.5664 60H59.2188L58.6641 54Z" fill="white"/>
<path d="M53.24 201.384C50.4027 201.384 48.2907 200.381 46.904 198.376C45.5387 196.371 44.856 193.523 44.856 189.832C44.856 186.141 45.5387 183.293 46.904 181.288C48.2907 179.283 50.4027 178.28 53.24 178.28C54.328 178.28 55.2667 178.429 56.056 178.728C56.8667 179.005 57.56 179.4 58.136 179.912C58.712 180.403 59.192 180.989 59.576 181.672C59.9813 182.333 60.312 183.048 60.568 183.816L57.336 184.904C57.1653 184.392 56.9733 183.912 56.76 183.464C56.5467 183.016 56.28 182.632 55.96 182.312C55.64 181.992 55.256 181.736 54.808 181.544C54.3813 181.352 53.848 181.256 53.208 181.256C51.6293 181.256 50.4773 181.864 49.752 183.08C49.0267 184.275 48.664 185.896 48.664 187.944V191.72C48.664 193.768 49.0267 195.4 49.752 196.616C50.4773 197.811 51.6293 198.408 53.208 198.408C53.848 198.408 54.3813 198.312 54.808 198.12C55.256 197.928 55.64 197.672 55.96 197.352C56.28 197.032 56.5467 196.648 56.76 196.2C56.9733 195.752 57.1653 195.272 57.336 194.76L60.568 195.848C60.312 196.616 59.9813 197.341 59.576 198.024C59.192 198.685 58.712 199.272 58.136 199.784C57.56 200.275 56.8667 200.669 56.056 200.968C55.2667 201.245 54.328 201.384 53.24 201.384ZM71.5955 201.384C69.6542 201.384 68.0222 201.043 66.6995 200.36C65.3768 199.677 64.2888 198.771 63.4355 197.64L65.7395 195.432C66.5928 196.456 67.4995 197.213 68.4595 197.704C69.4195 198.173 70.5075 198.408 71.7235 198.408C73.1315 198.408 74.2088 198.088 74.9555 197.448C75.7235 196.808 76.1075 195.891 76.1075 194.696C76.1075 193.736 75.8302 193 75.2755 192.488C74.7208 191.955 73.7715 191.571 72.4275 191.336L69.9955 190.952C68.9288 190.781 68.0328 190.504 67.3075 190.12C66.5822 189.715 65.9955 189.245 65.5475 188.712C65.0995 188.157 64.7688 187.549 64.5555 186.888C64.3635 186.205 64.2675 185.491 64.2675 184.744C64.2675 182.632 64.9502 181.032 66.3155 179.944C67.6808 178.835 69.5582 178.28 71.9475 178.28C73.7182 178.28 75.2222 178.568 76.4595 179.144C77.7182 179.699 78.7315 180.488 79.4995 181.512L77.2595 183.752C76.6408 183.005 75.9048 182.408 75.0515 181.96C74.2195 181.491 73.1848 181.256 71.9475 181.256C70.6248 181.256 69.6115 181.544 68.9075 182.12C68.2248 182.675 67.8835 183.496 67.8835 184.584C67.8835 185.501 68.1502 186.227 68.6835 186.76C69.2382 187.272 70.2088 187.645 71.5955 187.88L73.9635 188.296C75.9688 188.659 77.4302 189.395 78.3475 190.504C79.2648 191.592 79.7235 192.925 79.7235 194.504C79.7235 195.528 79.5422 196.467 79.1795 197.32C78.8382 198.173 78.3155 198.899 77.6115 199.496C76.9288 200.093 76.0755 200.563 75.0515 200.904C74.0488 201.224 72.8968 201.384 71.5955 201.384ZM90.783 201.384C88.8417 201.384 87.2097 201.043 85.887 200.36C84.5643 199.677 83.4763 198.771 82.623 197.64L84.927 195.432C85.7803 196.456 86.687 197.213 87.647 197.704C88.607 198.173 89.695 198.408 90.911 198.408C92.319 198.408 93.3963 198.088 94.143 197.448C94.911 196.808 95.295 195.891 95.295 194.696C95.295 193.736 95.0177 193 94.463 192.488C93.9083 191.955 92.959 191.571 91.615 191.336L89.183 190.952C88.1163 190.781 87.2203 190.504 86.495 190.12C85.7697 189.715 85.183 189.245 84.735 188.712C84.287 188.157 83.9563 187.549 83.743 186.888C83.551 186.205 83.455 185.491 83.455 184.744C83.455 182.632 84.1377 181.032 85.503 179.944C86.8683 178.835 88.7457 178.28 91.135 178.28C92.9057 178.28 94.4097 178.568 95.647 179.144C96.9057 179.699 97.919 180.488 98.687 181.512L96.447 183.752C95.8283 183.005 95.0923 182.408 94.239 181.96C93.407 181.491 92.3723 181.256 91.135 181.256C89.8123 181.256 88.799 181.544 88.095 182.12C87.4123 182.675 87.071 183.496 87.071 184.584C87.071 185.501 87.3377 186.227 87.871 186.76C88.4257 187.272 89.3963 187.645 90.783 187.88L93.151 188.296C95.1563 188.659 96.6177 189.395 97.535 190.504C98.4523 191.592 98.911 192.925 98.911 194.504C98.911 195.528 98.7297 196.467 98.367 197.32C98.0257 198.173 97.503 198.899 96.799 199.496C96.1163 200.093 95.263 200.563 94.239 200.904C93.2363 201.224 92.0843 201.384 90.783 201.384Z" fill="#0C73B8"/>
</svg>
